<svg data-name="Layer 1"
    xmlns="http://www.w3.org/2000/svg" viewBox="0 0 16.14 16.14" fill="currentColor">
    <g data-name="*System_Icons">
        <g data-name="System/Icons">
            <g data-name="atom/icon/search">
                <path d="M7 .02c-3.86 0-7 3.14-7 7s3.14 7 7 7c1.18 0 2.34-.28 3.32-.82.08.09.17.18.26.26l2 2a2.032 2.032 0 0 0 3.5-.86c.18-.74-.06-1.51-.63-2.01l-2-2c-.1-.1-.2-.18-.32-.26.54-.98.88-2.12.88-3.32A6.995 6.995 0 0 0 7.02 0L7 .02Zm0 2c2.78 0 5 2.22 5 5 0 1.32-.48 2.54-1.32 3.44l-.06.06c-.09.08-.18.17-.26.26-.88.8-2.08 1.26-3.38 1.26-2.78 0-5-2.22-5-5s2.22-5 5-5L7 2.02Z" data-name="icon/dark/magnifying-glass" style="fill-rule: evenodd;"></path>
            </g>
        </g>
    </g>
</svg> 